<svg xmlns="http://www.w3.org/2000/svg" viewBox="0 0 24 24" fill="currentColor">
  <path d="M17.813 4.653h.854c1.51.054 2.769.578 3.773 1.574 1.004.995 1.524 2.249 1.56 3.76v7.36c-.036 1.51-.556 2.769-1.56 3.773s-2.262 1.524-3.773 1.56H5.333c-1.51-.036-2.769-.556-3.773-1.56S.036 18.858 0 17.347v-7.36c.036-1.511.556-2.765 1.56-3.76 1.004-.996 2.262-1.52 3.773-1.574h.774l-1.174-1.12a1.234 1.234 0 0 1-.373-.906c0-.356.124-.659.373-.907l.027-.027c.267-.249.573-.373.92-.373.347 0 .653.124.92.373L9.653 4.44c.071.071.134.142.187.213h4.267a.836.836 0 0 1 .16-.213l2.853-2.747c.267-.249.573-.373.92-.373.347 0 .662.151.929.4.267.249.391.551.391.907 0 .355-.124.657-.373.906L17.813 4.653zM3.2 10.36v4.92c0 .98.4 1.35 1.28 1.173l1.84-.533v-6.12l-1.84-.427c-.88-.16-1.28.16-1.28 1.053v-.066zm10.267-.747v7.213c0 .587-.213 1.053-.64 1.4-.427.347-.933.467-1.52.36l-1.88-.427v-7.68l1.88-.32c.587-.107 1.053.04 1.4.44.347.4.52.88.52 1.44v-.066l.24-.453zm3.413-.533l1.96.533v6.12l-1.84.533c-.88.16-1.28-.2-1.28-1.173v-4.933c0-.893.4-1.213 1.16-1.08z"/>
</svg>
