<svg xmlns="http://www.w3.org/2000/svg" viewBox="0 0 24 24" fill="none">
  <path d="M4 9H20V13H4V9Z" stroke="#F59E0B" stroke-width="2" />
  <path d="M12 9V21" stroke="#F59E0B" stroke-width="2" />
  <path d="M12 9H8.5C7.12 9 6 7.88 6 6.5C6 5.12 7.12 4 8.5 4C10.43 4 12 6.24 12 9Z" stroke="#F59E0B" stroke-width="2" />
  <path d="M12 9H15.5C16.88 9 18 7.88 18 6.5C18 5.12 16.88 4 15.5 4C13.57 4 12 6.24 12 9Z" stroke="#F59E0B" stroke-width="2" />
  <path d="M4 13H20V19C20 20.1 19.1 21 18 21H6C4.9 21 4 20.1 4 19V13Z" stroke="#F59E0B" stroke-width="2" />
</svg>
