<svg xmlns="http://www.w3.org/2000/svg" viewBox="0 0 24 24" fill="currentColor">
  <path d="M10.098 20c-4.612 0-8.362-2.715-8.362-6.054 0-1.597.97-3.27 2.622-4.564 2.19-1.715 4.896-2.375 5.74-2.375.34 0 .567.027.567.027s2.027-.17 4.13.654c1.547.606 2.593 1.69 3.106 2.495.513.805.654 1.61.654 1.61s.17 1.297-.367 2.45c-.44.96-1.2 1.785-1.2 1.785s.37-.057.366.17c-.003.227-.273.76-.273 1.31 0 1.03-.366 1.99-.366 1.99s.366.17.366.654c0 .484-.366 1.193-.366 1.838 0 2.148 2.028 4.61 5.12 4.61 4.098 0 6.675-3.11 6.675-3.11s-.17-.35-.17-.91c0-.56.17-1.45.17-2.38 0-1.295-.343-2.43-.343-2.43s-.366.17-.366.56c0 .39.173 1.075.173 1.84 0 1.215-.343 2.502-.343 2.502s.343.17.343.653c0 .484-.343 1.31-.343 2.1 0 2.777 1.88 4.59 4.74 4.59 4.14 0 6.86-3.89 6.86-3.89.02-.13.05-.29.05-.46 0-.91-.8-1.64-1.79-1.64-.96 0-1.75.74-1.75 1.65 0 .91.73 1.64 1.64 1.64.88 0 1.57-.58 1.57-1.29 0-.35-.14-.68-.38-.92-.24-.24-.38-.56-.38-.91 0-.74.6-1.35 1.34-1.35.73 0 1.33.61 1.33 1.35 0 .74-.6 1.35-1.33 1.35-.4 0-.77-.18-1.02-.48-.25-.3-.4-.7-.4-1.12 0-1.17.96-2.12 2.14-2.12 1.18 0 2.14.95 2.14 2.12 0 .52-.2 1-.53 1.36-.33.36-.52.85-.52 1.36 0 .91.46 1.72 1.13 2.18.67.46 1.04 1.22 1.04 2.05 0 1.66-1.35 3-3 3-1.65 0-3-1.34-3-3 0-1.29.82-2.39 1.96-2.8-.1-.36-.31-.7-.59-.99-.5-.51-.8-1.21-.8-1.99 0-1.58 1.29-2.86 2.86-2.86s2.86 1.28 2.86 2.86c0 1.58-1.29 2.86-2.86 2.86-.8 0-1.52-.33-2.06-.86-.54-.53-.86-1.26-.86-2.06 0-1.61 1.31-2.92 2.92-2.92s2.92 1.31 2.92 2.92c0 .9-.41 1.7-1.04 2.26.63.61 1.04 1.46 1.04 2.39 0 1.93-1.57 3.5-3.5 3.5s-3.5-1.57-3.5-3.5c0-1.58 1.06-2.89 2.5-3.3-.32-.36-.5-.84-.5-1.36 0-1.12.91-2.03 2.03-2.03 1.12 0 2.03.91 2.03 2.03 0 .6-.26 1.14-.68 1.52.42.29.68.78.68 1.33 0 .91-.73 1.64-1.64 1.64-.88 0-1.57-.58-1.57-1.29 0-.71.69-1.29 1.57-1.29.89 0 1.64.73 1.64 1.64 0 .91-.75 1.64-1.64 1.64-.73 0-1.34-.48-1.56-1.14-.14-.43-.54-.73-.99-.73-.55 0-1 .45-1 1 0 .55.45 1 1 1 .4 0 .75-.24.91-.58.16-.34.49-.58.88-.58.55 0 1 .45 1 1s-.45 1-1 1c-1.32 0-2.42-.78-2.91-1.89-.49-1.11-1.38-1.89-2.45-1.89-1.41 0-2.58.92-2.91 2.19-.33 1.27-1.14 2.19-2.36 2.19-1.22 0-2.19-.71-2.5-1.68-.31-.97-1.03-1.65-1.9-1.65-.87 0-1.57.52-1.86 1.26-.29.74-.97 1.25-1.77 1.25-.8 0-1.45-.4-1.71-.99-.26-.59-.82-1-1.47-1-.65 0-1.18.41-1.41.99-.23.58-.74.99-1.35.99-.61 0-1.11-.41-1.33-.99-.22-.58-.73-.99-1.33-.99-.6 0-1.09.41-1.31.99-.22.58-.71.99-1.31.99-.6 0-1.09-.41-1.31-.99-.22-.58-.71-.99-1.31-.99-.6 0-1.09.41-1.31.99-.22.58-.71.99-1.31.99-.6 0-1.09-.41-1.31-.99-.22-.58-.71-.99-1.31-.99-.6 0-1.09.41-1.31.99-.22.58-.71.99-1.31.99z"/>
</svg>
