<svg xmlns="http://www.w3.org/2000/svg" viewBox="0 0 24 24" fill="currentColor">
  <path d="M5.72 3.57L7.45 5.3l.63-.2c.44-.14 1.03-.1 1.32.14.3.24.36.65.28 1.08l-.02.1c-.03.17-.05.34-.05.52 0 .18.02.36.05.53l.02.1c.08.43 0 .84-.28 1.08-.29.24-.88.28-1.32.14l-.63-.2-1.73 1.73c-.28.28-.5.6-.65.95l-.2.63c-.14.44-.1 1.03.14 1.32.24.3.65.36 1.08.28l.1-.02c.17-.03.34-.05.52-.05.18 0 .36.02.53.05l.1.02c.43.08.84 0 1.08-.28.24-.29.28-.88.14-1.32l-.2-.63c-.15-.35-.26-.67-.26-1.05 0-.38.11-.7.26-1.05l1.73-1.73-.2-.63c-.14-.44-.1-1.03.14-1.32.24-.3.65-.36 1.08-.28l.1.02c.17.03.34.05.52.05.18 0 .36-.02.53-.05l.1-.02c.43-.08.84 0 1.08.28.24.29.28.88.14 1.32l-.2.63 1.73 1.73c.28.28.5.6.65.95l.2.63c.14.44.1 1.03-.14 1.32-.29.24-.88.28-1.32.14l-.63-.2c-.44-.14-.9-.06-1.23.16-.33.22-.58.56-.69.95 1.12-.22 2.24-.67 2.91-1.4.78-.84 1.13-1.95 1.13-3.09 0-.48-.08-.96-.24-1.41-.18-.51-.47-.98-.84-1.37l-2.6-2.6c-.4-.4-.88-.68-1.4-.84-.52-.16-1.05-.2-1.58-.12-.53.08-1.02.32-1.42.72L5.72 3.57zm-.9 1.4c.48-.48 1.06-.8 1.68-.94.62-.14 1.26-.08 1.82.16.56.24 1.02.64 1.34 1.14.32.5.48 1.08.44 1.68-.04.6-.28 1.16-.68 1.6-.4.44-.9.74-1.46.88-.56.14-1.14.1-1.68-.1-.54-.2-1-.54-1.34-1-.34-.46-.54-1-.58-1.56-.04-.56.1-1.12.46-1.6v-.26z"/>
</svg>
