<svg xmlns="http://www.w3.org/2000/svg" viewBox="0 0 1280 720">
  <rect fill="#F5F3FF" width="1280" height="720"/>
  <rect fill="#E0E7FF" x="100" y="100" width="500" height="300" rx="16"/>
  <rect fill="#818CF8" x="100" y="100" width="500" height="40" rx="16"/>
  <circle fill="#6366F1" cx="130" cy="120" r="12"/>
  <circle fill="#059669" cx="160" cy="120" r="12"/>
  <circle fill="#F59E0B" cx="190" cy="120" r="12"/>
  <rect fill="#E0E7FF" x="150" y="180" width="400" height="20" rx="4"/>
  <rect fill="#E0E7FF" x="150" y="220" width="300" height="20" rx="4"/>
  <rect fill="#E0E7FF" x="150" y="280" width="400" height="80" rx="8"/>
  <rect fill="#6366F1" x="150" y="300" width="100" height="40" rx="8"/>
  <rect fill="#E0E7FF" x="700" y="100" width="480" height="300" rx="16"/>
  <rect fill="#E0E7FF" x="720" y="140" width="440" height="60" rx="8"/>
  <rect fill="#E0E7FF" x="720" y="220" width="440" height="60" rx="8"/>
  <rect fill="#6366F1" x="720" y="300" width="440" height="60" rx="8"/>
  <text x="640" y="500" font-family="sans-serif" font-size="32" fill="#6366F1" text-anchor="middle">Pracmo - AI 练习平台</text>
  <text x="640" y="550" font-family="sans-serif" font-size="18" fill="#64748B" text-anchor="middle">Web · iOS · Android · Chrome Extension</text>
</svg>
